<svg width="32" height="14" viewBox="0 0 32 14" fill="none" xmlns="http://www.w3.org/2000/svg">
<path opacity="0.3" d="M7.66699 0.535156C7.52302 0.535178 7.38005 0.559692 7.24707 0.607422C7.11422 0.655169 6.9932 0.725373 6.8916 0.813477L0.321289 6.49609C0.219307 6.58408 0.138214 6.68864 0.0830078 6.80371C0.0278149 6.91877 0 7.04242 0 7.16699C2.86102e-05 7.29152 0.0278282 7.41526 0.0830078 7.53027C0.138212 7.64525 0.219385 7.74997 0.321289 7.83789L6.8916 13.5205C7.09718 13.6983 7.37626 13.7988 7.66699 13.7988C7.95779 13.7988 8.23676 13.6984 8.44238 13.5205C8.64801 13.3426 8.76367 13.1011 8.76367 12.8496C8.76355 12.5983 8.64785 12.3574 8.44238 12.1797L3.74121 8.11426H30.6348C30.9251 8.11418 31.2039 8.01348 31.4092 7.83594C31.6142 7.65843 31.7294 7.41788 31.7295 7.16699C31.7295 6.91592 31.6144 6.67466 31.4092 6.49707C31.2039 6.31953 30.9251 6.21981 30.6348 6.21973H3.74121L8.44238 2.1543C8.54436 2.06631 8.62546 1.96175 8.68066 1.84668C8.73587 1.7316 8.76465 1.60799 8.76465 1.4834C8.76462 1.35888 8.73584 1.23513 8.68066 1.12012C8.62549 1.00524 8.54418 0.901343 8.44238 0.813477C8.34069 0.725298 8.2199 0.655172 8.08691 0.607422C7.95387 0.559671 7.81103 0.535156 7.66699 0.535156Z" fill="black"/>
</svg>
