<svg width="25" height="24" viewBox="0 0 25 24" fill="none" xmlns="http://www.w3.org/2000/svg">
<path d="M7.31445 17C6.76445 17 6.29362 16.8042 5.90195 16.4125C5.51029 16.0208 5.31445 15.55 5.31445 15V5C5.31445 4.45 5.51029 3.97917 5.90195 3.5875C6.29362 3.19583 6.76445 3 7.31445 3H21.3145C21.8645 3 22.3353 3.19583 22.727 3.5875C23.1186 3.97917 23.3145 4.45 23.3145 5V15C23.3145 15.55 23.1186 16.0208 22.727 16.4125C22.3353 16.8042 21.8645 17 21.3145 17H7.31445ZM14.3145 12.3L7.31445 7.425V15H21.3145V7.425L14.3145 12.3ZM14.3145 9.85L21.3145 5H7.31445L14.3145 9.85ZM3.31445 21C2.76445 21 2.29362 20.8042 1.90195 20.4125C1.51029 20.0208 1.31445 19.55 1.31445 19V6.5H3.31445V19H19.8145V21H3.31445Z" fill="#F75126"/>
</svg>
