<svg width="52" height="22" viewBox="0 0 52 22" fill="none" xmlns="http://www.w3.org/2000/svg">
<path d="M39.2285 0.355469C39.4633 0.355469 39.6962 0.395784 39.9131 0.473633C40.1299 0.55148 40.3274 0.664832 40.4932 0.808594L51.2051 10.0742C51.3713 10.2176 51.5028 10.3886 51.5928 10.5762C51.6827 10.7637 51.7295 10.965 51.7295 11.168C51.7294 11.371 51.6827 11.5723 51.5928 11.7598C51.5028 11.9471 51.3711 12.1174 51.2051 12.2607L40.4932 21.5264C40.1579 21.8163 39.7026 21.9795 39.2285 21.9795C38.7546 21.9794 38.3 21.8162 37.9648 21.5264C37.6296 21.2364 37.4414 20.8427 37.4414 20.4326C37.4415 20.0227 37.6297 19.6297 37.9648 19.3398L45.6289 12.7129H1.78516C1.31172 12.7129 0.857235 12.5504 0.522461 12.2607C0.18767 11.9711 0 11.5776 0 11.168C1.57868e-05 10.7585 0.187954 10.3658 0.522461 10.0762C0.857235 9.78652 1.31172 9.62309 1.78516 9.62305H45.6299L37.9648 2.99512C37.7987 2.8517 37.6661 2.68169 37.5762 2.49414C37.4862 2.3066 37.4404 2.10538 37.4404 1.90234C37.4404 1.69933 37.4863 1.49807 37.5762 1.31055C37.6662 1.12294 37.7986 0.952039 37.9648 0.808594C38.1306 0.664871 38.3281 0.551449 38.5449 0.473633C38.7617 0.395862 38.9938 0.355497 39.2285 0.355469Z" fill="black"/>
</svg>
