<svg width="28" height="19" viewBox="0 0 28 19" fill="none" xmlns="http://www.w3.org/2000/svg">
<path d="M1.42005 19H25.8924C26.6792 18.9555 27.3125 18.2974 27.3125 17.5008V1.49922C27.3125 0.677865 26.6445 0.00494792 25.8232 0H1.48932C0.667969 0.00494792 0 0.677865 0 1.49922V17.4958C0 18.2974 0.633333 18.9555 1.42005 19Z" fill="#FEFEFE"/>
<path d="M11.7464 11.3951V19H15.5464V11.3951H27.3125V7.59505H15.5464V0H11.7464V7.59505H0V11.3951H11.7464Z" fill="#C8102E"/>
<path d="M16.813 6.15026V0H25.833C26.4565 0.00989583 26.9909 0.400781 27.2086 0.95L16.813 6.15026Z" fill="#012169"/>
<path d="M16.813 12.8496V18.9999H25.8924C26.4911 18.9652 26.9958 18.5793 27.2086 18.0499L16.813 12.8496Z" fill="#012169"/>
<path d="M10.4798 12.8496V18.9999H1.42015C0.821452 18.9652 0.311816 18.5793 0.104004 18.04L10.4798 12.8496Z" fill="#012169"/>
<path d="M10.4798 6.15026V0H1.47952C0.856087 0.00989583 0.316764 0.405729 0.104004 0.959896L10.4798 6.15026Z" fill="#012169"/>
<path d="M0 6.33353H3.78516L0 4.43848V6.33353Z" fill="#012169"/>
<path d="M27.3118 6.33317H23.5068L27.3118 4.42822V6.33317Z" fill="#012169"/>
<path d="M27.3118 12.6665H23.5068L27.3118 14.5715V12.6665Z" fill="#012169"/>
<path d="M0 12.6665H3.78516L0 14.5616V12.6665Z" fill="#012169"/>
<path d="M27.3125 1.60791L17.8867 6.33317H19.9945L27.3125 2.67171V1.60791Z" fill="#C8102E"/>
<path d="M9.40599 12.6665H7.29818L0 16.3181V17.3819L9.42578 12.6665H9.40599Z" fill="#C8102E"/>
<path d="M5.20521 6.33822H7.31302L0 2.67676V3.73561L5.20521 6.33822Z" fill="#C8102E"/>
<path d="M22.0824 12.6616H19.9746L27.3124 16.3379V15.2791L22.0824 12.6616Z" fill="#C8102E"/>
</svg>
