<svg width="28" height="19" viewBox="0 0 28 19" fill="none" xmlns="http://www.w3.org/2000/svg">
<path d="M1.49961 0H25.815C26.6415 0 27.3146 0.673091 27.3146 1.49961V17.5004C27.3146 18.3269 26.6415 19 25.815 19H1.49961C0.673091 19.0049 0 18.3318 0 17.5053V1.49961C0 0.673091 0.673091 0 1.49961 0Z" fill="#B22234"/>
<path d="M0.0098984 1.35156H27.3146C27.3196 1.40105 27.3245 1.45055 27.3245 1.50499V2.96005H0V1.50004C0 1.45055 0.0049492 1.40105 0.0098984 1.35156ZM27.3196 4.29139V5.89493H0V4.29139H27.3196ZM27.3196 7.23121V8.83475H0V7.23121H27.3196ZM27.3196 10.171V11.7746H0V10.171H27.3196ZM27.3196 13.1109V14.7144H0V13.1109H27.3196ZM27.3196 16.0507V17.5008C27.3196 17.5503 27.3146 17.6047 27.3097 17.6542H0.0098984C0.0049492 17.6097 0 17.5552 0 17.5057V16.0556H27.3196V16.0507Z" fill="white"/>
<path d="M10.2943 0V10.2349H0V1.49961C0 0.673091 0.673091 0 1.49961 0H10.2943Z" fill="#3C3B6E"/>
<path d="M0.608576 1.41553L0.950071 2.47961L0.0493164 1.82136H1.16784L0.262132 2.47961L0.608576 1.41553Z" fill="white"/>
<path d="M0.608576 3.47461L0.950071 4.53869L0.0493164 3.88044H1.16784L0.262132 4.53869L0.608576 3.47461Z" fill="white"/>
<path d="M0.608576 5.5332L0.950071 6.59728L0.0493164 5.93904H1.16784L0.262132 6.59728L0.608576 5.5332Z" fill="white"/>
<path d="M0.608576 7.5918L0.950071 8.65587L0.0493164 7.99763H1.16784L0.262132 8.65587L0.608576 7.5918Z" fill="white"/>
<path d="M1.81658 0.385742L2.16303 1.44982L1.25732 0.791577H2.38079L1.47014 1.44982L1.81658 0.385742Z" fill="white"/>
<path d="M1.81658 2.44434L2.16303 3.50841L1.25732 2.85017H2.38079L1.47014 3.50841L1.81658 2.44434Z" fill="white"/>
<path d="M1.81658 4.50391L2.16303 5.56798L1.25732 4.90974H2.38079L1.47014 5.56798L1.81658 4.50391Z" fill="white"/>
<path d="M1.81658 6.56201L2.16303 7.62609L1.25732 6.96785H2.38079L1.47014 7.62609L1.81658 6.56201Z" fill="white"/>
<path d="M1.81658 8.62158L2.16303 9.68566L1.25732 9.02742H2.38079L1.47014 9.68566L1.81658 8.62158Z" fill="white"/>
<path d="M3.02801 1.41553L3.37445 2.47961L2.46875 1.82136H3.58727L2.68157 2.47961L3.02801 1.41553Z" fill="white"/>
<path d="M3.02801 3.47461L3.37445 4.53869L2.46875 3.88044H3.58727L2.68157 4.53869L3.02801 3.47461Z" fill="white"/>
<path d="M3.02801 5.5332L3.37445 6.59728L2.46875 5.93904H3.58727L2.68157 6.59728L3.02801 5.5332Z" fill="white"/>
<path d="M3.02801 7.5918L3.37445 8.65587L2.46875 7.99763H3.58727L2.68157 8.65587L3.02801 7.5918Z" fill="white"/>
<path d="M4.2409 0.385742L4.58239 1.44982L3.68164 0.791577H4.80016L3.89446 1.44982L4.2409 0.385742Z" fill="white"/>
<path d="M4.2409 2.44434L4.58239 3.50841L3.68164 2.85017H4.80016L3.89446 3.50841L4.2409 2.44434Z" fill="white"/>
<path d="M4.2409 4.50391L4.58239 5.56798L3.68164 4.90974H4.80016L3.89446 5.56798L4.2409 4.50391Z" fill="white"/>
<path d="M4.2409 6.56201L4.58239 7.62609L3.68164 6.96785H4.80016L3.89446 7.62609L4.2409 6.56201Z" fill="white"/>
<path d="M4.2409 8.62158L4.58239 9.68566L3.68164 9.02742H4.80016L3.89446 9.68566L4.2409 8.62158Z" fill="white"/>
<path d="M5.44842 1.41553L5.79486 2.47961L4.88916 1.82136H6.00768L5.10198 2.47961L5.44842 1.41553Z" fill="white"/>
<path d="M5.44842 3.47461L5.79486 4.53869L4.88916 3.88044H6.00768L5.10198 4.53869L5.44842 3.47461Z" fill="white"/>
<path d="M5.44842 5.5332L5.79486 6.59728L4.88916 5.93904H6.00768L5.10198 6.59728L5.44842 5.5332Z" fill="white"/>
<path d="M5.44842 7.5918L5.79486 8.65587L4.88916 7.99763H6.00768L5.10198 8.65587L5.44842 7.5918Z" fill="white"/>
<path d="M6.66131 0.385742L7.00775 1.44982L6.10205 0.791577H7.22057L6.31487 1.44982L6.66131 0.385742Z" fill="white"/>
<path d="M6.66131 2.44434L7.00775 3.50841L6.10205 2.85017H7.22057L6.31487 3.50841L6.66131 2.44434Z" fill="white"/>
<path d="M6.66131 4.50391L7.00775 5.56798L6.10205 4.90974H7.22057L6.31487 5.56798L6.66131 4.50391Z" fill="white"/>
<path d="M6.66131 6.56201L7.00775 7.62609L6.10205 6.96785H7.22057L6.31487 7.62609L6.66131 6.56201Z" fill="white"/>
<path d="M6.66131 8.62158L7.00775 9.68566L6.10205 9.02742H7.22057L6.31487 9.68566L6.66131 8.62158Z" fill="white"/>
<path d="M7.86883 1.41553L8.21527 2.47961L7.30957 1.82136H8.42809L7.52733 2.47961L7.86883 1.41553Z" fill="white"/>
<path d="M7.86883 3.47461L8.21527 4.53869L7.30957 3.88044H8.42809L7.52733 4.53869L7.86883 3.47461Z" fill="white"/>
<path d="M7.86883 5.5332L8.21527 6.59728L7.30957 5.93904H8.42809L7.52733 6.59728L7.86883 5.5332Z" fill="white"/>
<path d="M7.86883 7.5918L8.21527 8.65587L7.30957 7.99763H8.42809L7.52733 8.65587L7.86883 7.5918Z" fill="white"/>
<path d="M9.08123 0.385742L9.42768 1.44982L8.52197 0.791577H9.64049L8.73479 1.44982L9.08123 0.385742Z" fill="white"/>
<path d="M9.08123 2.44434L9.42768 3.50841L8.52197 2.85017H9.64049L8.73479 3.50841L9.08123 2.44434Z" fill="white"/>
<path d="M9.08123 4.50391L9.42768 5.56798L8.52197 4.90974H9.64049L8.73479 5.56798L9.08123 4.50391Z" fill="white"/>
<path d="M9.08123 6.56201L9.42768 7.62609L8.52197 6.96785H9.64049L8.73479 7.62609L9.08123 6.56201Z" fill="white"/>
<path d="M9.08123 8.62158L9.42768 9.68566L8.52197 9.02742H9.64049L8.73479 9.68566L9.08123 8.62158Z" fill="white"/>
</svg>
